<svg id="Layer_1" data-name="Layer 1" xmlns="http://www.w3.org/2000/svg" xmlns:xlink="http://www.w3.org/1999/xlink" viewBox="0 0 181.91 33.31"><defs><style>.cls-1{fill:url(#linear-gradient);}.cls-2{fill:url(#linear-gradient-2);}.cls-3{fill:#494949;}</style><linearGradient id="linear-gradient" x1="12.98" y1="30.28" x2="29.32" y2="13.95" gradientUnits="userSpaceOnUse"><stop offset="0" stop-color="#ec99d9"/><stop offset="1" stop-color="#8867e4"/></linearGradient><linearGradient id="linear-gradient-2" x1="3.29" y1="35.92" x2="10.67" y2="28.54" xlink:href="#linear-gradient"/></defs><path class="cls-1" d="M32.27,36.45,21.38,6.22a1.54,1.54,0,0,0-1.45-1H12a1.54,1.54,0,0,0-1.44,1L5.37,20.27l-2.88-.48s13.36,4.26,19.94,17.84a1.54,1.54,0,0,0,1.38.88h7A1.54,1.54,0,0,0,32.27,36.45ZM19.4,27.18a43,43,0,0,0-5.57-5.26.19.19,0,0,1-.06-.2l2.09-7.12a.18.18,0,0,1,.35,0L19.72,27A.19.19,0,0,1,19.4,27.18Z" transform="translate(-2.49 -5.2)"/><path class="cls-2" d="M5.41,23.4a.07.07,0,0,0-.1.09c4.78,9.9.54,15,.54,15h5.37C13,30,6.73,24.47,5.41,23.4Z" transform="translate(-2.49 -5.2)"/><path class="cls-3" d="M43.21,15.61,49.84,30a1.25,1.25,0,0,1-1.14,1.78h0a1.26,1.26,0,0,1-1.14-.74l-2.12-4.64H38.51l-2.38,5a.6.6,0,0,1-.55.36h0a.62.62,0,0,1-.56-.88l7.22-15.32a.53.53,0,0,1,.48-.31h0A.54.54,0,0,1,43.21,15.61ZM39,25.38h5.95l-2.57-5.6a.41.41,0,0,0-.74,0Z" transform="translate(-2.49 -5.2)"/><path class="cls-3" d="M57.33,31.16A4.38,4.38,0,0,0,58.52,31a3.68,3.68,0,0,0,1-.49,2.53,2.53,0,0,0,.74-.79,2.06,2.06,0,0,0,.28-1.09,2.27,2.27,0,0,0-.38-1.32,4.33,4.33,0,0,0-1-1.06,11.21,11.21,0,0,0-1.42-.91c-.53-.28-1.07-.57-1.63-.85s-1.09-.58-1.62-.89a8.71,8.71,0,0,1-1.42-1.05,5.09,5.09,0,0,1-1-1.29,3.37,3.37,0,0,1-.39-1.64,4.26,4.26,0,0,1,.35-1.72,3.75,3.75,0,0,1,1-1.36,4.68,4.68,0,0,1,1.65-.91A7,7,0,0,1,57,15.3a8,8,0,0,1,2.05.24,5.2,5.2,0,0,1,1.58.72,4.57,4.57,0,0,1,1.15,1.17,5.57,5.57,0,0,1,.52.93.75.75,0,0,1-.38,1h0a.74.74,0,0,1-1-.38,6.71,6.71,0,0,0-.35-.65,4.17,4.17,0,0,0-.9-1,3.87,3.87,0,0,0-1.21-.68,5,5,0,0,0-1.55-.23,3.89,3.89,0,0,0-1.34.21,3,3,0,0,0-1,.56,2.38,2.38,0,0,0-.57.78,2.28,2.28,0,0,0-.19.88,1.91,1.91,0,0,0,.39,1.16,4.53,4.53,0,0,0,1,1,12.42,12.42,0,0,0,1.47.91l1.67.89c.57.3,1.13.61,1.67.93a9.27,9.27,0,0,1,1.47,1.07,5.09,5.09,0,0,1,1,1.27,3,3,0,0,1,.39,1.54,4.52,4.52,0,0,1-.36,1.8,4,4,0,0,1-1.1,1.48,5.59,5.59,0,0,1-1.81,1,8,8,0,0,1-2.52.36,7.75,7.75,0,0,1-2.08-.25,5.08,5.08,0,0,1-1.61-.75A4.81,4.81,0,0,1,52.25,30a5.71,5.71,0,0,1-.5-.83.78.78,0,0,1,.4-1.07h0a.78.78,0,0,1,1,.41,5,5,0,0,0,1.41,1.76,4.51,4.51,0,0,0,1.27.66A4.89,4.89,0,0,0,57.33,31.16Z" transform="translate(-2.49 -5.2)"/><path class="cls-3" d="M68.15,24.06v6.39a1.36,1.36,0,0,1-1.36,1.36h0a1.35,1.35,0,0,1-1.35-1.36V17a1.34,1.34,0,0,1,1.35-1.35h0A1.35,1.35,0,0,1,68.15,17v6h8.11V17a1.34,1.34,0,0,1,1.35-1.35h0A1.35,1.35,0,0,1,79,17V30.45a1.36,1.36,0,0,1-1.36,1.36h0a1.35,1.35,0,0,1-1.35-1.36V24.06Z" transform="translate(-2.49 -5.2)"/><path class="cls-3" d="M117,15.54h0a1.7,1.7,0,0,1,1.53.94l5.81,11.43h.13l5.69-11.44a1.69,1.69,0,0,1,1.51-.93h0a1.68,1.68,0,0,1,1.68,1.68V30.31A1.36,1.36,0,0,1,132,31.68h0a1.36,1.36,0,0,1-1.36-1.37V18.44h-.09l-6.62,13.24h-.56l-6.69-13.13h-.19V31.07a.6.6,0,0,1-.6.61h0a.6.6,0,0,1-.6-.61V17.25A1.72,1.72,0,0,1,117,15.54Z" transform="translate(-2.49 -5.2)"/><path class="cls-3" d="M145.45,32.05a9.05,9.05,0,0,1-3.5-.67,8.69,8.69,0,0,1-2.82-1.83,8.59,8.59,0,0,1-1.89-2.71,8.09,8.09,0,0,1-.68-3.32,7.9,7.9,0,0,1,.31-2.23,7.73,7.73,0,0,1,.88-2,8.24,8.24,0,0,1,1.38-1.69,8.6,8.6,0,0,1,1.8-1.3,9.09,9.09,0,0,1,2.13-.84,9.71,9.71,0,0,1,4.79,0,9.53,9.53,0,0,1,2.14.84,8.54,8.54,0,0,1,3.17,3,7.43,7.43,0,0,1,.89,2,7.9,7.9,0,0,1,.31,2.23,8.22,8.22,0,0,1-1.2,4.3A8.62,8.62,0,0,1,150,30.88a8.74,8.74,0,0,1-2.14.87A9.39,9.39,0,0,1,145.45,32.05Zm0-.8a5,5,0,0,0,2.46-.58,5.19,5.19,0,0,0,1.79-1.61,7.33,7.33,0,0,0,1.1-2.45,12,12,0,0,0,.37-3.09,11.64,11.64,0,0,0-.37-3.05,7,7,0,0,0-1.1-2.4,5,5,0,0,0-1.79-1.55,5.71,5.71,0,0,0-4.93,0,4.93,4.93,0,0,0-1.79,1.55,7,7,0,0,0-1.09,2.4,11.64,11.64,0,0,0-.37,3.05,12,12,0,0,0,.37,3.09,7.32,7.32,0,0,0,1.09,2.45A5.1,5.1,0,0,0,143,30.67,5,5,0,0,0,145.45,31.25Z" transform="translate(-2.49 -5.2)"/><path class="cls-3" d="M157.59,16.27a.74.74,0,0,1,.74-.73h4.86a9.2,9.2,0,0,1,2.54.31,5.19,5.19,0,0,1,1.83.87,3.59,3.59,0,0,1,1.1,1.33,3.79,3.79,0,0,1,.37,1.68,3.53,3.53,0,0,1-.28,1.42,3.77,3.77,0,0,1-.81,1.18,4.88,4.88,0,0,1-1.24.92,7.88,7.88,0,0,1-1.61.6l4.37,5.81a1.26,1.26,0,0,1-1,2h0a1.26,1.26,0,0,1-1-.51l-5.24-7.08h-1.89V31a.72.72,0,0,1-.72.72h-1.26a.74.74,0,0,1-.74-.74Zm2.72,7h1.57a5.33,5.33,0,0,0,1.68-.25,4.23,4.23,0,0,0,1.34-.68,3.11,3.11,0,0,0,1.2-2.51,3.39,3.39,0,0,0-.25-1.33,3,3,0,0,0-.71-1.05,3.29,3.29,0,0,0-1.08-.67,3.79,3.79,0,0,0-1.37-.24h-2.38Z" transform="translate(-2.49 -5.2)"/><path class="cls-3" d="M184.4,16.06h0a.52.52,0,0,1-.53.52h-7.43a.55.55,0,0,0-.55.55V21.8a.54.54,0,0,0,.55.55h4.62a.52.52,0,0,1,.52.53h0a.52.52,0,0,1-.52.52h-4.64a.53.53,0,0,0-.53.53V30a.63.63,0,0,0,.63.63h7.35a.52.52,0,0,1,.53.52h0a.53.53,0,0,1-.53.53H173.82a.66.66,0,0,1-.65-.65V16.19a.65.65,0,0,1,.65-.65h10.05A.52.52,0,0,1,184.4,16.06Z" transform="translate(-2.49 -5.2)"/><path class="cls-3" d="M107.93,28.82a.4.4,0,0,0-.51.14,2.07,2.07,0,0,1-.75.75,3,3,0,0,1-1.53.35,2.81,2.81,0,0,1-1.51-.54,10.67,10.67,0,0,1-1.53-1.27.34.34,0,0,1,0-.44c.26-.33.49-.64.7-.95a8.46,8.46,0,0,0,.68-1.15,8.73,8.73,0,0,0,.51-1.26q.17-.56.3-1.23a.33.33,0,0,0-.63-.16,9.53,9.53,0,0,1-.7,1.69,12.25,12.25,0,0,1-1.53,2.19.33.33,0,0,1-.5,0c-.58-.66-1.13-1.33-1.64-2a17.51,17.51,0,0,1-1.34-2.05.32.32,0,0,1,.15-.44l1.23-.61a8.17,8.17,0,0,0,1.35-.85,4.17,4.17,0,0,0,1-1.05,2.45,2.45,0,0,0,.37-1.36,3.26,3.26,0,0,0-.29-1.39,3.05,3.05,0,0,0-.8-1,3.34,3.34,0,0,0-1.17-.65,4.82,4.82,0,0,0-1.44-.22,4.43,4.43,0,0,0-1.81.35,3.78,3.78,0,0,0-2.07,2.23,4.73,4.73,0,0,0-.26,1.53,5.08,5.08,0,0,0,.29,1.5,17.57,17.57,0,0,0,.66,1.64A.33.33,0,0,1,95,23c-.51.26-1,.53-1.49.82A8.76,8.76,0,0,0,91.93,25a5.5,5.5,0,0,0-1.08,1.51,4.28,4.28,0,0,0-.41,1.93,3.92,3.92,0,0,0,.23,1.4,2.69,2.69,0,0,0,.73,1.09,3.47,3.47,0,0,0,1.29.7,6.34,6.34,0,0,0,1.92.25,7.94,7.94,0,0,0,3-.56A11.72,11.72,0,0,0,99.93,30a.32.32,0,0,1,.4,0,9.71,9.71,0,0,0,1.83,1.31,4.24,4.24,0,0,0,2,.55,4.64,4.64,0,0,0,1.42-.21,3.29,3.29,0,0,0,1.17-.62,4.81,4.81,0,0,0,1.33-1.66.38.38,0,0,0-.17-.53ZM96.55,17.68a3.13,3.13,0,0,1,.43-.81,2.11,2.11,0,0,1,.64-.59,1.42,1.42,0,0,1,.81-.23,1.51,1.51,0,0,1,.73.17,1.72,1.72,0,0,1,.6.48,2.51,2.51,0,0,1,.41.76,3.24,3.24,0,0,1,.15,1,2.46,2.46,0,0,1-.23,1.06,3,3,0,0,1-.63.89,5.63,5.63,0,0,1-.94.75l-.86.51a.33.33,0,0,1-.45-.14,10.33,10.33,0,0,1-.56-1.41,5.61,5.61,0,0,1-.25-1.58A2.77,2.77,0,0,1,96.55,17.68ZM99,29.2a9.35,9.35,0,0,1-1.35.82,4.16,4.16,0,0,1-1.8.41,3.31,3.31,0,0,1-1.25-.23,2.75,2.75,0,0,1-.94-.66,3,3,0,0,1-.59-1,3.42,3.42,0,0,1-.21-1.21,3,3,0,0,1,.21-1.1,3.83,3.83,0,0,1,.58-1,5.68,5.68,0,0,1,.88-.89c.26-.21.53-.41.82-.6a.33.33,0,0,1,.45.12c.2.36.41.73.63,1.1s.56.94.87,1.4.62.91,1,1.35a12.65,12.65,0,0,0,.8,1A.33.33,0,0,1,99,29.2Z" transform="translate(-2.49 -5.2)"/></svg>