<svg id="Layer_1" data-name="Layer 1" xmlns="http://www.w3.org/2000/svg" xmlns:xlink="http://www.w3.org/1999/xlink" viewBox="0 0 52.2 44.3"><defs><style>.cls-1{fill:url(#linear-gradient);}.cls-2{fill:url(#linear-gradient-2);}</style><linearGradient id="linear-gradient" x1="20.6" y1="32.58" x2="40.82" y2="12.37" gradientUnits="userSpaceOnUse"><stop offset="0" stop-color="#ec99d9"/><stop offset="1" stop-color="#8867e4"/></linearGradient><linearGradient id="linear-gradient-2" x1="8.58" y1="39.67" x2="17.39" y2="30.86" xlink:href="#linear-gradient"/></defs><path class="cls-1" d="M44.47,40.21,31,2.8A1.9,1.9,0,0,0,29.2,1.55H19.39a1.9,1.9,0,0,0-1.78,1.24l-6.43,17.4L7.62,19.6s16.53,5.27,24.67,22.07A1.9,1.9,0,0,0,34,42.75h8.67A1.9,1.9,0,0,0,44.47,40.21ZM28.55,28.74a52.72,52.72,0,0,0-6.9-6.51.22.22,0,0,1-.07-.24l2.58-8.81a.23.23,0,0,1,.44,0l4.34,15.36A.22.22,0,0,1,28.55,28.74Z"/><path class="cls-2" d="M11.11,24.73a.08.08,0,0,0-.13.1c5.71,11.82.65,17.89.65,17.89H18C20.2,32.65,12.69,26,11.11,24.73Z"/></svg>